<svg id="Layer_1" data-name="Layer 1" xmlns="http://www.w3.org/2000/svg" viewBox="0 0 442.11 104.29"><defs><style>.cls-1{fill:#262626;}.cls-2{fill:#ff385c;}</style></defs><path class="cls-1" d="M26.3,22.33H8.36A8.1,8.1,0,0,0,0,30.74V94.41a8.11,8.11,0,0,0,8.36,8.42H26.3c25.57,0,43.51-16.59,43.51-40.5S52.24,22.33,26.3,22.33Zm-.12,14.88c16.6,0,26.91,9.63,26.91,25.12S42.3,88,26.18,88H16.36V37.21Zm89.56,4.51a19.47,19.47,0,0,0-14.66,6.83,7.87,7.87,0,0,0-7.88-7.44,8,8,0,0,0-8.12,8.29V95.88a8.15,8.15,0,0,0,8.24,8.41,8,8,0,0,0,8.12-8.41V72.7c0-9.27,5.33-15,14.06-15.61,4.61-.49,7.64-3.54,7.64-7.93A7,7,0,0,0,115.74,41.72Zm26.9,62.57a8.16,8.16,0,0,0,8.25-8.41V49.4a8.19,8.19,0,1,0-16.37,0V95.88A8.13,8.13,0,0,0,142.64,104.29Zm59.51-63.18a24.7,24.7,0,0,0-16.84,6.22,7.8,7.8,0,0,0-7.64-6.22,8,8,0,0,0-8.12,8.29V95.88a8.15,8.15,0,0,0,8.24,8.41,8,8,0,0,0,8.12-8.41V67.58c0-6.83,4.73-11.71,11.39-11.71s11.16,4.76,11.16,11.71v28.3a8.13,8.13,0,0,0,8.12,8.41c4.72,0,8.12-3.53,8.12-8.41V65.38C224.7,50.62,215.85,41.11,202.15,41.11Zm49-31.22a8.15,8.15,0,0,0-8.24,8.41V95.88a8.16,8.16,0,0,0,8.24,8.41,8,8,0,0,0,8.12-8.41V18.3C259.23,13.42,255.84,9.89,251.11,9.89Zm44.48,80.25-16-17.8,14.54-17.2c1.94-2.32,2.67-4.27,2.67-6.1a7.89,7.89,0,0,0-7.88-7.93,8.25,8.25,0,0,0-6.67,3.42l-17.81,22.2c-1.82,2.19-2.55,4-2.55,5.85s.73,3.78,2.55,6l19.27,22.07a8.2,8.2,0,0,0,6.66,3.54,7.89,7.89,0,0,0,7.88-7.93C298.26,94.41,297.53,92.46,295.59,90.14Zm44.72,14.15c16.12,0,27.52-11.46,27.52-28.05V49.4a8.19,8.19,0,1,0-16.37,0V77.58c0,6.71-4.6,11.59-11.15,11.59s-11.39-4.88-11.39-11.59V49.4a8.18,8.18,0,1,0-16.36,0V76.24C312.56,92.83,324,104.29,340.31,104.29Z"/><path class="cls-2" d="M142.64,4.08c-5.57,0-10.18,10.81-10.18,16.42a10,10,0,0,0,10.18,9.88A10.15,10.15,0,0,0,153,20.5C153,14.89,148.22,4.08,142.64,4.08Z"/><path class="cls-2" d="M419.57,41.11c-7.61,0-32.6-1.54-32.6,22.74v32a8.15,8.15,0,0,0,8.24,8.41,8.05,8.05,0,0,0,8.12-8.41V67.58c0-6.83,4.72-11.71,11.39-11.71s11.15,4.76,11.15,11.71v28.3a8.13,8.13,0,0,0,8.12,8.41c4.73,0,8.12-3.53,8.12-8.41V65.38C442.11,50.62,433.26,41.11,419.57,41.11Zm-6.84,19.1c.06.94.16,1.6.16,2.27,0,12.75,0,22.29,0,35,0,1.78-.52,2.29-2.27,2.25-4.32-.09-4.32,0-4.32-4.31,0-8.85,0-14.49,0-23.33C406.36,67,408.27,63.43,412.73,60.21Z"/><path class="cls-1" d="M407.87,35.75V34c0-7.23,0-14.45,0-21.67a5.35,5.35,0,0,0-.63-2.42c-2.33-4.31.48-9.67,5.28-9.83a41.08,41.08,0,0,1,6.75.28A4.44,4.44,0,0,1,423,4.94c-.1,1.95.72,4.07-.94,5.82-.24.25-.07.9-.07,1.36Q422,23,422,34v1.78Z"/></svg>